<svg enable-background="new 0 0 1920 1080" viewBox="0 0 1920 1080" xmlns="http://www.w3.org/2000/svg"><g fill="#0066b3"><path d="m657.8 465.9-27.2 49.2c-10.3-8.3-22.8-14.4-38.8-14.4-37.9 0-51.8 28.1-51.8 47.9 0 14.7 8.2 36.4 41.9 36.4 17.1 0 35.5-7.9 43.7-14.3l-27.1 55.4c-12.6 4.4-20.6 5.8-31.5 6.1-60.3 1.8-83.3-35.1-83.2-72.8 0-49.8 43.1-110.4 116.9-110.4 4.5 0 9.2.9 13.3 3.3l5.3-4.6z"/><path d="m770.2 450.9 7.7 177.9h-54.5l-1.4-30.5h-40.2l-12.8 30.5h-63.5l63.9-124.5h-12.5l29.9-53.4zm-51.3 59.5-19.7 47.3h21.3z"/><path d="m447.8 451.4c28.2.2 44.1 15.4 44.1 37.4 0 20.3-16.8 38.2-35.3 47.5 19 6.9 20.6 24 20.6 36.1 0 29.2-29.4 56.4-67.6 56.4h-83.3l31.1-124.1-13.4-.1 26.4-53.2c.1 0 54.4-.1 77.4 0zm-28.8 70.8c5.8 0 16.1-1.5 18.7-12.7 2.8-12.2-6.8-12.5-11.5-12.5l-16.3-.1-6 25.3zm-23.1 32.5-7.6 29.2h19.5c7.7 0 18.1-3.8 20.7-13.3 2.5-9.5-4.8-15.9-12.4-15.9z"/><path d="m181.9 646.8c-28.8 0-58.3-6.9-87.8-20.6l-.7-.3-.3-.7c-13.3-27.4-20.3-57.3-20.3-86.6 0-29.2 6.7-57.9 20-85.2l.4-.7.7-.4c27.3-12.7 56.7-19.1 87.4-19.1 28.6 0 59.1 7.1 88.2 20.7l.7.3.4.7c13.5 27.9 20.6 57.8 20.6 86.6 0 28.7-6.8 57.3-20.4 85.2l-.3.7-.8.3c-27 12.5-57.3 19.1-87.8 19.1zm-85.1-24.4c28.7 13.2 57.3 19.9 85.1 19.9 29.5 0 58.9-6.3 85-18.3 13-27 19.6-54.8 19.6-82.5 0-27.9-6.9-56.9-19.9-83.9-28.3-13-57.8-19.9-85.5-19.9-29.7 0-58.1 6.2-84.6 18.3-12.7 26.5-19.2 54.2-19.2 82.5.1 28.4 6.8 57.4 19.5 83.9z"/><path d="m176.6 593.2c0-8.5.1-31.2-.1-34 .2-33.8-24.3-57.6-39.8-55.8-10.7.9-19.7 5.3-24.5 17.9-4.5 11.7-.5 27.4 14.4 31 15.9 3.9 25.2 7.2 31.9 11.8 8.2 5.6 14.9 16.4 15.1 29z"/><path d="m170 593.2c.1-10.9-6-20.5-13.9-25.7-7-4.6-16.5-7.6-31.7-11.4-4.7-1.2-9.6-3.9-11.1-7.3-4 4.1-4.8 13.2-4.1 18.6.8 6.2 8 16.4 18.9 16.8 6.6.3 15-1.4 19-2.3 6.9-1.5 17.9 2.9 19.7 11.4z"/><path d="m182.2 450.8c-18.4 0-34.3 12.2-34.3 33.3.1 17.7 14.3 27.2 19.3 34 7.7 10.2 11.8 22.3 12.2 40.8.3 14.7.3 29.2.4 34.4h4.1c-.1-5.4-.2-20.8 0-34.9.3-18.5 4.6-30.1 12.2-40.3 5.1-6.8 19.3-16.3 19.4-34 .1-21.1-15.8-33.3-34.2-33.3"/><path d="m186.9 593.2c0-8.5-.1-31.2.1-34-.2-33.8 24.3-57.6 39.8-55.8 10.7.9 19.7 5.3 24.5 17.9 4.5 11.7.4 27.4-14.4 31-15.9 3.9-25.2 7.2-31.9 11.8-8.2 5.6-14.5 16.4-14.6 29z"/><path d="m193.5 593.2c-.1-10.9 6-20.5 13.9-25.7 7.1-4.6 16.5-7.6 31.7-11.4 4.7-1.2 9.6-3.9 11.1-7.3 4.1 4.1 4.8 13.2 4.1 18.6-.9 6.2-8 16.4-18.9 16.8-6.6.3-15.1-1.4-19.1-2.3-6.9-1.5-17.9 2.9-19.7 11.4z"/><path d="m198.7 628.1-2.4-17.2 5.7-.9c1.4-.2 3.1.1 3.7.9.7.9 1 1.7 1.1 2.9.2 1.5-.2 3.2-1.9 4v.1c1.8 0 3 1.3 3.3 3.6.1.5.2 1.6.1 2.6-.4 2.3-1.7 3-4 3.3zm3.7-3.1c.7-.1 1.4-.1 1.9-.5.8-.5.7-1.7.6-2.5-.3-1.9-.8-2.6-2.8-2.3l-1.2.2.8 5.2zm-1.2-8c.8-.1 1.8-.2 2.2-.9.2-.5.5-.9.3-1.9-.2-1.3-.7-2-2.3-1.7l-1.5.2.6 4.4z"/><path d="m223.6 618c0 .3.1.7.1 1 .5 3.1-.1 5.7-3.7 6.5-5.2 1-6.2-2.2-7.1-6.8l-.5-2.5c-.7-4.4-1-7.6 4.1-8.7 2.9-.5 4.8.6 5.5 3.5.1.4.3.8.3 1.3l-3.1.6c-.4-1.1-.8-3-2.2-2.8-2.5.3-1.7 3.4-1.4 4.8l.9 4.7c.3 1.4.8 3.7 3 3.3 1.8-.4 1-3.1.8-4.2z"/><path d="m228.6 623.3-1.1-17.8 4.2-1.3 8.8 15.5-3.3 1-2.1-3.9-3.7 1.1.5 4.5zm2.5-8.3 2.7-.8-3.5-7.2z"/><path d="m124.5 609.9c1.3-4.2 2.5-7.3 7.5-5.9 2.7.7 4.3 1.9 4.3 5 0 .7-.2 1.4-.4 2.1l-3.1-.9c.4-1.7.7-3.1-1.4-3.7-2.5-.7-3.1 2.3-3.4 3.6l-1.3 4.7c-.4 1.4-.9 3.7 1.3 4.3 1.8.5 2.9-1.3 3.5-3.8l-2.2-.6.8-2.7 5.1 1.6-2.4 9-2.4-.6.5-1.9h-.1c-1.1 1.6-2.4 1.7-3.6 1.5-5.1-1.4-4.6-4.7-3.4-9.2z"/><path d="m143.8 617.4-1.5 7.3-3.5-.7 3.7-17.1 5.9 1.3c3.5.7 4.5 2.3 4 5.5-.3 1.8-1.2 3.8-3.4 3.6 1.9.6 2 1.6 1.7 3.2-.1.7-1.1 4.9-.4 5.6v.5l-3.6-.9c-.1-1.2.4-3.2.6-4.4.2-1 .5-2.5-.5-3-.8-.4-1.1-.4-2-.6zm.6-2.6 2.3.6c1.4.2 2.2-.5 2.5-2.2.3-1.6-.1-2.2-1.3-2.5l-2.5-.5z"/><path d="m166.2 610.6 3.4.4-1.5 12c-.7 3.8-2.2 5.5-6.4 5-4.3-.5-5.3-2.5-5-6.3l1.5-12 3.5.4-1.5 11.7c-.2 1.3-.5 3.2 1.8 3.4 2 .2 2.5-1.2 2.7-2.8z"/><path d="m173.8 628.5.4-17.2 6.6.1c3.1 0 4 2.6 4 5 0 1.5-.4 3.1-1.7 4.1-1 .8-2.4 1-3.6 1h-2.2l-.2 7.2zm3.5-9.8h1.8c1.4 0 2.3-.6 2.4-2.7 0-2-.8-2.3-2.6-2.3h-1.4z"/></g><path d="m1444.8 504.1h45.6l-21.4 124.7h-45.7z" fill="#00a6b5"/><path clip-rule="evenodd" d="m1586.4 540.5c3.9-16.3 17.8-26.4 29.1-32 11.2-5.4 26.9-7 42-6.7 5.8 0 12.2.2 18.9.7 6.8.6 13.3 2.1 19.5 4.3 6.3 2 11.5 5.3 15.5 9.8 4 4.4 6.1 14.6 6.1 20.3 0 11.4-2.6 24.4-6.1 43.4-1.6 8.8-5.1 25.7-5.4 34-.2 4.4 1.4 11.7 2.8 14.6h-43.9c-2.3-2.2-2.9-9.3-3.4-15.5-7.9 6.9-11.9 9.6-18.8 12.4-9.8 3.9-22.8 6-30.2 6-10.4 0-18.9-.7-26.4-6-7.8-5.1-13.9-11.8-13.9-23.5 0-17.4 10.1-29 21-35.3 10.7-6.2 27.7-8.2 46.2-12.2 3.4-.7 18.5-3.5 22.5-4.9 7.4-2.6 9.8-4.1 9.8-8.5 0-6.6-5.7-10.4-15.9-10.4-9.7 0-22.3 6.1-25 14.7zm34.1 54c0 4.1 1.7 6.9 5 8.4 3.1 1.6 6.8 1.7 10.7 1.8 5 .1 14.3-4.1 18.3-7.9 4.7-4.5 10-7.6 12-26.3-7.5 2.1-11.7 2.9-16.1 4.2-6.1 1.8-9.7 2.1-15.6 4.5-3.9 1.6-6.5 2.6-9.6 4.8-3.1 2.6-4.7 6-4.7 10.5z" fill="#00a6b5" fill-rule="evenodd"/><path d="m1328.9 628.8h-43.8l3.5-20.8c-12 11.7-28 22.8-45.3 22.8-9.3 0-17.8-1.9-25.3-6.8-7.6-5.3-11.6-14-11.9-26 .1-6.1 1.1-14 3-23.7l12.2-70h47.4l-10 52.7c-1.5 8.2-2.3 14-3.2 21-.5 4.1.7 10.1 3.2 12 2.4 1.9 6.8 3.8 10.7 3.8 7.1-.2 12.6-3.2 15.6-7.6 3.3-4.5 5.8-10.2 7.3-17.2l12.1-64.7h46.6z" fill="#00a6b5"/><path d="m1356.2 504.2h41.4l-4.5 27.6c5.4-13.2 13-21.2 19.3-25.6 7.5-5.2 18.1-6.3 27.5-4.8l-7.7 44c-8.2-.9-21.8.2-30.1 6.8-5.9 4.7-9.2 14.4-11.5 27.3l-9.1 49.3h-47.2z" fill="#00a6b5"/><path clip-rule="evenodd" d="m1064.5 595.8c-6.3 9.5-9.7 13.3-17.9 19.6-7.3 5.5-12.2 7.8-20.7 11-14.4 5.3-26 5.2-39 5.3-19.4 0-31.5-6.4-41-16.3-8.4-8.8-14.4-24.5-14.4-42.2 0-34.7 18.3-49.6 28.7-56.8 9.8-6.8 14.7-9.1 26.2-12.1 9.1-2.4 18.3-2.8 25.8-2.8 17.4 0 31.3 4.1 43 12.4 11.8 8.5 18.3 22.4 17.9 41.8-.2 6.7-1.5 14.3-2.8 21.6h-94.9c-.5 6.7.6 12.3 3.3 16.7 2.4 5 10 9.1 17.1 9.1 9.9-.4 18.1-4.4 21.8-10.5zm-38.8-40.2c.7-11.7-.3-14.6-4.4-19.9-2.8-3.1-7.9-4.7-13.8-4.7-13.4 0-23.5 10.8-27.2 24.7h45.4z" fill="#00a6b5" fill-rule="evenodd"/><path d="m835.5 588.1c2.6 6 7.3 9.5 11.4 11.4 5.2 2.4 12.4 2.5 17.8 2.5 3.5 0 7.5-.7 9.3-1.9 1.8-.8 5.2-3.3 5.4-6 .4-3.7-3.4-5.4-20.6-9.4-10.6-2.4-22.6-4.5-34.8-11.8-6.2-3.7-15.9-13.1-15.9-27.9 0-9.9 2.4-17.2 5.6-23 8.3-14.9 29.8-23 50.2-23 31 0 47 10.4 51.9 14.6 5.6 4.9 10.6 10.7 12.1 18.2l-37.6 7.8c-2.1-4.7-5.3-7.5-8.3-9.3-3.6-2-9.5-2.8-13.4-2.8-9.4 0-15.2 2.6-15.2 6.5 0 4.3 3.5 8.1 13.7 9.9 15.9 2.8 30.6 6.4 40 11.8 9.3 5.4 18.3 15.7 18.3 30.1 0 14.6-5.3 24.8-15.4 32.7-10 8.1-27.8 13.5-47.1 13.5-32.7 0-51.3-11.8-56.9-18.3-4.5-5.3-8.4-11.1-10.3-19.5z" fill="#00a6b5"/><path d="m1754.7 588.1c2.6 6 7.3 9.5 11.4 11.4 5.2 2.4 12.4 2.5 17.8 2.5 3.5 0 7.4-.7 9.3-1.9 1.8-.8 5.2-3.3 5.4-6 .4-3.7-3.4-5.4-20.6-9.4-10.6-2.4-22.6-4.5-34.8-11.8-6.2-3.7-15.9-13.1-15.9-27.9 0-9.9 2.4-17.2 5.6-23 8.3-14.9 29.8-23 50.2-23 31 0 47 10.4 51.9 14.6 5.6 4.9 10.6 10.7 12.1 18.2l-37.6 7.8c-2.1-4.7-5.3-7.5-8.3-9.3-3.6-2-9.5-2.8-13.4-2.8-9.4 0-15.2 2.6-15.2 6.5 0 4.3 3.5 8.1 13.7 9.9 15.9 2.8 30.6 6.4 40 11.8 9.3 5.4 18.3 15.7 18.3 30.1 0 14.6-5.3 24.8-15.4 32.7-10 8.1-27.8 13.5-47.1 13.5-32.7 0-51.3-11.8-56.9-18.3-4.5-5.3-8.4-11.1-10.3-19.5z" fill="#00a6b5"/><path clip-rule="evenodd" d="m1516.9 468.7h46.9l-5.2 35.4h21.4l-5.5 33.4h-21.7l-8 48.8c-1 6.1.1 7.9 1.7 10.3 1.8 2.1 4 2.4 8.6 3 3.1.4 10.8-1.9 10.8-1.9l-4.5 32.4c-7.5 1.3-16.6 2-24.6 1.8-19.2-.5-29.9-4.5-35.5-12-9.8-13.1-3.8-34.6 3.7-82.3h-15.3l5.7-33.4h14.9z" fill="#00a6b5" fill-rule="evenodd"/><path d="m1176.3 504.1h44l-47.8 42.9 30.1 81.8-46.9-.1-17.7-50.7-17.5 15.7-5.7 35-46.9.1 27.4-168.8h46.9l-14.1 87z" fill="#00a6b5"/></svg>